<svg width="692" height="700" viewBox="0 0 692 700" fill="none" xmlns="http://www.w3.org/2000/svg">
<g opacity="0.4" filter="url(#filter0_d_1_78)">
<mask id="path-1-outside-1_1_78" maskUnits="userSpaceOnUse" x="30" y="26" width="632" height="640" fill="black">
<rect fill="white" x="30" y="26" width="632" height="640"/>
<path d="M30 346C30 172.03 171.03 28 345 28C518.97 28 660 172.03 660 346C660 519.97 518.97 664 345 664C171.03 664 30 519.97 30 346Z"/>
</mask>
<path d="M30 346C30 172.03 171.03 28 345 28C518.97 28 660 172.03 660 346C660 519.97 518.97 664 345 664C171.03 664 30 519.97 30 346Z" fill="url(#paint0_linear_1_78)" fill-opacity="0.21" shape-rendering="crispEdges"/>
<path d="M30 342.25C30 167.866 171.366 26.5 345.75 26.5C520.134 26.5 661.5 167.866 661.5 342.25L658.5 343C658.5 169.859 518.141 29.5 345 29.5C171.03 29.5 30 169.859 30 343V342.25ZM661.5 349.75C661.5 524.134 520.134 665.5 345.75 665.5C171.366 665.5 30 524.134 30 349.75V349C30 522.141 171.03 662.5 345 662.5C518.141 662.5 658.5 522.141 658.5 349L661.5 349.75ZM30 664V28V664ZM345.75 26.5C520.134 26.5 661.5 167.866 661.5 342.25V349.75C661.5 524.134 520.134 665.5 345.75 665.5L345 662.5C518.141 662.5 658.5 522.141 658.5 349V343C658.5 169.859 518.141 29.5 345 29.5L345.75 26.5Z" fill="url(#paint1_linear_1_78)" fill-opacity="0.2" mask="url(#path-1-outside-1_1_78)"/>
</g>
<defs>
<filter id="filter0_d_1_78" x="0" y="0.5" width="691.5" height="699" filterUnits="userSpaceOnUse" color-interpolation-filters="sRGB">
<feFlood flood-opacity="0" result="BackgroundImageFix"/>
<feColorMatrix in="SourceAlpha" type="matrix" values="0 0 0 0 0 0 0 0 0 0 0 0 0 0 0 0 0 0 127 0" result="hardAlpha"/>
<feOffset dy="4"/>
<feGaussianBlur stdDeviation="15"/>
<feComposite in2="hardAlpha" operator="out"/>
<feColorMatrix type="matrix" values="0 0 0 0 0 0 0 0 0 0 0 0 0 0 0 0 0 0 0.25 0"/>
<feBlend mode="normal" in2="BackgroundImageFix" result="effect1_dropShadow_1_78"/>
<feBlend mode="normal" in="SourceGraphic" in2="effect1_dropShadow_1_78" result="shape"/>
</filter>
<linearGradient id="paint0_linear_1_78" x1="-3.49997" y1="502.5" x2="429.063" y2="42.1296" gradientUnits="userSpaceOnUse">
<stop offset="0.0909917" stop-color="white"/>
<stop offset="0.216192" stop-color="white"/>
<stop offset="0.45654" stop-color="white" stop-opacity="0"/>
</linearGradient>
<linearGradient id="paint1_linear_1_78" x1="246.221" y1="0.471963" x2="843.284" y2="325.212" gradientUnits="userSpaceOnUse">
<stop stop-color="white"/>
<stop offset="1" stop-color="white" stop-opacity="0"/>
</linearGradient>
</defs>
</svg>
